HIERARCHY
ROOT newVegas:Hips
{
	OFFSET 0.000000 96.479958 0.000000
	CHANNELS 6 Xposition Yposition Zposition Xrotation Yrotation Zrotation
	JOINT newVegas:Pelvis
	{
		OFFSET 0.000000 0.000000 0.000000
		CHANNELS 3 Xrotation Yrotation Zrotation
		JOINT newVegas:LeftUpLeg
		{
			OFFSET 18.735201 -5.666702 -4.541200
			CHANNELS 3 Xrotation Yrotation Zrotation
			JOINT newVegas:LeftLeg
			{
				OFFSET -0.021200 -31.938179 0.493100
				CHANNELS 3 Xrotation Yrotation Zrotation
				JOINT newVegas:LeftFoot
				{
					OFFSET 0.021200 -31.938179 -4.336299
					CHANNELS 3 Xrotation Yrotation Zrotation
					JOINT newVegas:LeftToeBase
					{
						OFFSET 0.943001 -26.722000 15.023500
						CHANNELS 3 Xrotation Yrotation Zrotation
						End Site
						{
							OFFSET 0.000000 30.670183 0.000000
						}
					}
				}
				JOINT newVegas:Left_PantLeg
				{
					OFFSET 0.663870 -9.044666 -1.108900
					CHANNELS 3 Xrotation Yrotation Zrotation
					End Site
					{
						OFFSET 1.415995 20.635357 0.000000
					}
				}
			}
		}
		JOINT newVegas:RightUpLeg
		{
			OFFSET -18.735201 -5.666702 -4.541200
			CHANNELS 3 Xrotation Yrotation Zrotation
			JOINT newVegas:RightLeg
			{
				OFFSET 0.018946 -31.938133 0.493100
				CHANNELS 3 Xrotation Yrotation Zrotation
				JOINT newVegas:RightFoot
				{
					OFFSET -0.018946 -31.938126 -4.336299
					CHANNELS 3 Xrotation Yrotation Zrotation
					JOINT newVegas:RightToeBase
					{
						OFFSET -0.943001 -26.722004 15.023500
						CHANNELS 3 Xrotation Yrotation Zrotation
						End Site
						{
							OFFSET 0.000000 30.670187 0.000000
						}
					}
				}
				JOINT newVegas:Right_PantLeg
				{
					OFFSET -0.661674 -9.044716 -1.108900
					CHANNELS 3 Xrotation Yrotation Zrotation
					End Site
					{
						OFFSET -1.415958 20.635269 0.000000
					}
				}
			}
		}
	}
	JOINT newVegas:Spine
	{
		OFFSET 0.000000 10.199997 -0.299500
		CHANNELS 3 Xrotation Yrotation Zrotation
		JOINT newVegas:Spine1
		{
			OFFSET 0.000000 11.900002 -1.516600
			CHANNELS 3 Xrotation Yrotation Zrotation
			JOINT newVegas:Spine2
			{
				OFFSET 0.000000 13.600006 -2.842500
				CHANNELS 3 Xrotation Yrotation Zrotation
				JOINT newVegas:Neck
				{
					OFFSET 0.000000 9.624100 -2.890100
					CHANNELS 3 Xrotation Yrotation Zrotation
					JOINT newVegas:Head
					{
						OFFSET 0.000000 14.068802 -1.351900
						CHANNELS 3 Xrotation Yrotation Zrotation
						JOINT newVegas:Hair_Back
						{
							OFFSET 0.000000 3.231903 -17.524799
							CHANNELS 3 Xrotation Yrotation Zrotation
							End Site
							{
								OFFSET 0.000000 19.849884 0.000000
							}
						}
						JOINT newVegas:Hair_Front
						{
							OFFSET 0.000000 31.260406 4.573800
							CHANNELS 3 Xrotation Yrotation Zrotation
							JOINT newVegas:Hair_Front1
							{
								OFFSET 0.000000 2.284103 11.993300
								CHANNELS 3 Xrotation Yrotation Zrotation
								JOINT newVegas:Hair_Front2
								{
									OFFSET 0.000000 2.284103 11.993300
									CHANNELS 3 Xrotation Yrotation Zrotation
									End Site
									{
										OFFSET 0.000000 12.208862 0.000000
									}
								}
							}
						}
						JOINT newVegas:Jowel
						{
							OFFSET 0.000000 -7.458206 6.864100
							CHANNELS 3 Xrotation Yrotation Zrotation
							End Site
							{
								OFFSET 0.000000 19.849884 0.000000
							}
						}
					}
				}
				JOINT newVegas:LeftShoulder
				{
					OFFSET 15.263000 10.923401 -0.547700
					CHANNELS 3 Xrotation Yrotation Zrotation
					JOINT newVegas:LeftArm
					{
						OFFSET 25.438599 -2.830597 -13.032500
						CHANNELS 3 Xrotation Yrotation Zrotation
						JOINT newVegas:LeftForeArm
						{
							OFFSET 29.960503 0.000000 0.000000
							CHANNELS 3 Xrotation Yrotation Zrotation
							JOINT newVegas:LeftHand
							{
								OFFSET 27.849251 0.000000 0.000000
								CHANNELS 3 Xrotation Yrotation Zrotation
								JOINT newVegas:LeftHandThumb1
								{
									OFFSET 4.487587 -3.305161 6.305391
									CHANNELS 3 Xrotation Yrotation Zrotation
									JOINT newVegas:LeftHandThumb2
									{
										OFFSET 5.480453 -3.164139 3.164143
										CHANNELS 3 Xrotation Yrotation Zrotation
										JOINT newVegas:LeftHandThumb3
										{
											OFFSET 5.159721 -2.978973 2.978967
											CHANNELS 3 Xrotation Yrotation Zrotation
											End Site
											{
												OFFSET 2.494507 5.926697 1.738678
											}
										}
									}
								}
								JOINT newVegas:LeftHandIndex1
								{
									OFFSET 18.578728 -0.527832 5.208049
									CHANNELS 3 Xrotation Yrotation Zrotation
									JOINT newVegas:LeftHandIndex2
									{
										OFFSET 3.192009 0.000000 0.000000
										CHANNELS 3 Xrotation Yrotation Zrotation
										JOINT newVegas:LeftHandIndex3
										{
											OFFSET 3.835129 0.000000 0.000000
											CHANNELS 3 Xrotation Yrotation Zrotation
											End Site
											{
												OFFSET -0.034599 3.816971 0.371180
											}
										}
									}
								}
								JOINT newVegas:LeftHandMiddle1
								{
									OFFSET 18.476105 0.000000 0.000000
									CHANNELS 3 Xrotation Yrotation Zrotation
									JOINT newVegas:LeftHandMiddle2
									{
										OFFSET 3.324875 0.000000 0.000000
										CHANNELS 3 Xrotation Yrotation Zrotation
										JOINT newVegas:LeftHandMiddle3
										{
											OFFSET 4.596550 0.000000 0.000000
											CHANNELS 3 Xrotation Yrotation Zrotation
											End Site
											{
												OFFSET 0.057701 4.578827 0.399218
											}
										}
									}
								}
								JOINT newVegas:LeftHandRing1
								{
									OFFSET 17.732719 0.121887 -4.201567
									CHANNELS 3 Xrotation Yrotation Zrotation
									JOINT newVegas:LeftHandRing2
									{
										OFFSET 2.733170 0.000000 0.000000
										CHANNELS 3 Xrotation Yrotation Zrotation
										JOINT newVegas:LeftHandRing3
										{
											OFFSET 3.178268 0.000000 0.000000
											CHANNELS 3 Xrotation Yrotation Zrotation
											End Site
											{
												OFFSET 0.119102 3.170624 0.185394
											}
										}
									}
								}
								JOINT newVegas:LeftHandPinky1
								{
									OFFSET 15.989624 -0.606689 -7.535461
									CHANNELS 3 Xrotation Yrotation Zrotation
									JOINT newVegas:LeftHandPinky2
									{
										OFFSET 2.538986 0.000000 0.000000
										CHANNELS 3 Xrotation Yrotation Zrotation
										JOINT newVegas:LeftHandPinky3
										{
											OFFSET 2.593102 0.000000 0.000000
											CHANNELS 3 Xrotation Yrotation Zrotation
											End Site
											{
												OFFSET -0.150902 2.584198 0.152708
											}
										}
									}
								}
							}
							JOINT newVegas:Left_Sleeve
							{
								OFFSET 0.267448 -0.649796 0.577675
								CHANNELS 3 Xrotation Yrotation Zrotation
								End Site
								{
									OFFSET 0.000000 15.991241 0.000000
								}
							}
							JOINT newVegas:Left_CapeC
							{
								OFFSET 15.715958 -8.608795 -6.935905
								CHANNELS 3 Xrotation Yrotation Zrotation
								JOINT newVegas:Left_CapeC1
								{
									OFFSET 0.000000 -8.688499 0.000000
									CHANNELS 3 Xrotation Yrotation Zrotation
									End Site
									{
										OFFSET 0.000000 8.688499 0.000000
									}
								}
							}
						}
						JOINT newVegas:Left_CapeB
						{
							OFFSET 26.118385 -8.608795 -7.079235
							CHANNELS 3 Xrotation Yrotation Zrotation
							JOINT newVegas:Left_CapeB1
							{
								OFFSET 0.000000 -8.688499 0.000000
								CHANNELS 3 Xrotation Yrotation Zrotation
								End Site
								{
									OFFSET 0.000000 8.688499 0.000000
								}
							}
						}
						JOINT newVegas:Left_CapeA
						{
							OFFSET 5.115639 -8.608795 -10.395809
							CHANNELS 3 Xrotation Yrotation Zrotation
							JOINT newVegas:Left_CapeA1
							{
								OFFSET 0.000000 -8.688499 0.000000
								CHANNELS 3 Xrotation Yrotation Zrotation
								End Site
								{
									OFFSET 0.000000 8.688499 0.000000
								}
							}
						}
					}
				}
				JOINT newVegas:RightShoulder
				{
					OFFSET -15.263000 10.923401 -0.547700
					CHANNELS 3 Xrotation Yrotation Zrotation
					JOINT newVegas:RightArm
					{
						OFFSET -25.438599 -2.830597 -13.032500
						CHANNELS 3 Xrotation Yrotation Zrotation
						JOINT newVegas:RightForeArm
						{
							OFFSET -29.960503 0.000000 0.000000
							CHANNELS 3 Xrotation Yrotation Zrotation
							JOINT newVegas:RightHand
							{
								OFFSET -27.849251 0.000000 0.000000
								CHANNELS 3 Xrotation Yrotation Zrotation
								JOINT newVegas:RightHandThumb1
								{
									OFFSET -4.487587 -3.305161 6.305391
									CHANNELS 3 Xrotation Yrotation Zrotation
									JOINT newVegas:RightHandThumb2
									{
										OFFSET -5.480453 -3.164139 3.164143
										CHANNELS 3 Xrotation Yrotation Zrotation
										JOINT newVegas:RightHandThumb3
										{
											OFFSET -5.159721 -2.978973 2.978967
											CHANNELS 3 Xrotation Yrotation Zrotation
											End Site
											{
												OFFSET -2.494507 5.926697 1.738678
											}
										}
									}
								}
								JOINT newVegas:RightHandIndex1
								{
									OFFSET -18.578728 -0.527832 5.208049
									CHANNELS 3 Xrotation Yrotation Zrotation
									JOINT newVegas:RightHandIndex2
									{
										OFFSET -3.192009 0.000000 0.000000
										CHANNELS 3 Xrotation Yrotation Zrotation
										JOINT newVegas:RightHandIndex3
										{
											OFFSET -3.835129 0.000000 0.000000
											CHANNELS 3 Xrotation Yrotation Zrotation
											End Site
											{
												OFFSET 0.034599 3.816971 0.371180
											}
										}
									}
								}
								JOINT newVegas:RightHandMiddle1
								{
									OFFSET -18.476105 0.000000 0.000000
									CHANNELS 3 Xrotation Yrotation Zrotation
									JOINT newVegas:RightHandMiddle2
									{
										OFFSET -3.324875 0.000000 0.000000
										CHANNELS 3 Xrotation Yrotation Zrotation
										JOINT newVegas:RightHandMiddle3
										{
											OFFSET -4.596550 0.000000 0.000000
											CHANNELS 3 Xrotation Yrotation Zrotation
											End Site
											{
												OFFSET -0.057701 4.578827 0.399218
											}
										}
									}
								}
								JOINT newVegas:RightHandRing1
								{
									OFFSET -17.732719 0.121887 -4.201567
									CHANNELS 3 Xrotation Yrotation Zrotation
									JOINT newVegas:RightHandRing2
									{
										OFFSET -2.733170 0.000000 0.000000
										CHANNELS 3 Xrotation Yrotation Zrotation
										JOINT newVegas:RightHandRing3
										{
											OFFSET -3.178268 0.000000 0.000000
											CHANNELS 3 Xrotation Yrotation Zrotation
											End Site
											{
												OFFSET -0.119102 3.170624 0.185394
											}
										}
									}
								}
								JOINT newVegas:RightHandPinky1
								{
									OFFSET -15.989624 -0.606689 -7.535461
									CHANNELS 3 Xrotation Yrotation Zrotation
									JOINT newVegas:RightHandPinky2
									{
										OFFSET -2.538986 0.000000 0.000000
										CHANNELS 3 Xrotation Yrotation Zrotation
										JOINT newVegas:RightHandPinky3
										{
											OFFSET -2.593102 0.000000 0.000000
											CHANNELS 3 Xrotation Yrotation Zrotation
											End Site
											{
												OFFSET 0.150902 2.584198 0.152708
											}
										}
									}
								}
							}
							JOINT newVegas:Right_CapeC
							{
								OFFSET -15.715958 -8.608795 -6.935905
								CHANNELS 3 Xrotation Yrotation Zrotation
								JOINT newVegas:Right_CapeC1
								{
									OFFSET 0.000000 -8.688499 0.000000
									CHANNELS 3 Xrotation Yrotation Zrotation
									End Site
									{
										OFFSET 0.000000 8.688499 0.000000
									}
								}
							}
							JOINT newVegas:Right_Sleeve
							{
								OFFSET -0.267448 -0.649994 0.577675
								CHANNELS 3 Xrotation Yrotation Zrotation
								End Site
								{
									OFFSET 0.000000 15.991302 0.000000
								}
							}
						}
						JOINT newVegas:Right_CapeA
						{
							OFFSET -5.115540 -8.608795 -10.395824
							CHANNELS 3 Xrotation Yrotation Zrotation
							JOINT newVegas:Right_CapeA1
							{
								OFFSET 0.000000 -8.688499 0.000000
								CHANNELS 3 Xrotation Yrotation Zrotation
								End Site
								{
									OFFSET 0.000000 8.688499 0.000000
								}
							}
						}
						JOINT newVegas:Right_CapeB
						{
							OFFSET -26.118187 -8.608795 -7.079266
							CHANNELS 3 Xrotation Yrotation Zrotation
							JOINT newVegas:Right_CapeB1
							{
								OFFSET 0.000000 -8.688499 0.000000
								CHANNELS 3 Xrotation Yrotation Zrotation
								End Site
								{
									OFFSET 0.000000 8.688499 0.000000
								}
							}
						}
					}
				}
				JOINT newVegas:Left_Collar
				{
					OFFSET 18.625099 8.655502 8.828100
					CHANNELS 3 Xrotation Yrotation Zrotation
					JOINT newVegas:Left_Collar1
					{
						OFFSET 14.783401 10.540405 -1.259500
						CHANNELS 3 Xrotation Yrotation Zrotation
						End Site
						{
							OFFSET 0.000000 18.199875 0.000000
						}
					}
				}
				JOINT newVegas:Collar_Back
				{
					OFFSET 0.000000 15.630707 -20.132601
					CHANNELS 3 Xrotation Yrotation Zrotation
					End Site
					{
						OFFSET 0.000000 22.523010 0.000000
					}
				}
				JOINT newVegas:Left_Peck
				{
					OFFSET 17.239599 -5.132599 25.482599
					CHANNELS 3 Xrotation Yrotation Zrotation
					End Site
					{
						OFFSET 0.000000 22.523010 0.000000
					}
				}
				JOINT newVegas:Right_Peck
				{
					OFFSET -17.239599 -5.132202 25.482599
					CHANNELS 3 Xrotation Yrotation Zrotation
					End Site
					{
						OFFSET 0.000000 22.523010 0.000000
					}
				}
				JOINT newVegas:Right_Collar
				{
					OFFSET -18.625099 8.655792 8.828100
					CHANNELS 3 Xrotation Yrotation Zrotation
					JOINT newVegas:Right_Collar1
					{
						OFFSET -14.783401 10.539993 -1.259500
						CHANNELS 3 Xrotation Yrotation Zrotation
						End Site
						{
							OFFSET 0.000000 18.199631 0.000000
						}
					}
				}
			}
		}
		JOINT newVegas:Belly
		{
			OFFSET 0.000000 -6.540398 9.014299
			CHANNELS 3 Xrotation Yrotation Zrotation
			End Site
			{
				OFFSET 0.000000 11.566666 0.000000
			}
		}
	}
	JOINT newVegas:ElvisFacialAnim_Joint
	{
		OFFSET 1.000000 -95.330101 -8.825800
		CHANNELS 3 Xrotation Yrotation Zrotation
		End Site
		{
			OFFSET 0.000000 35.315800 0.000000
		}
	}
}
MOTION
Frames: 4
Frame Time: 0.033333
-3.526505 78.410362 3.057366 11.660454 -49.374423 11.268415 -0.000001 0.000004 -0.000000 -69.006952 20.606607 47.788125 51.256649 -22.124311 3.397207 2.960948 1.488336 -15.125394 -0.000000 -0.000000 -0.000000 0.000001 0.000000 0.000001 -33.116145 3.851114 -30.939872 58.819076 4.953903 -6.674895 -30.772628 -6.442860 30.151935 -0.000000 0.000003 0.000000 -0.000001 0.000003 0.000000 10.972486 2.720466 -2.032847 6.100717 5.566513 -4.284675 -5.786915 6.328164 -3.046193 0.458719 1.873409 -0.022570 0.458722 1.873410 -0.022574 0.000003 0.000000 0.000000 0.458781 1.873429 -0.022578 0.458636 1.873415 -0.022571 0.000003 -0.000001 0.000000 0.000003 0.000000 0.000000 -1.875347 -16.181756 -2.870470 -10.644652 2.164780 -45.510640 -22.862383 -25.786305 -15.871717 2.491034 -2.511847 6.860484 18.457987 -9.513795 13.216614 -1.150196 11.255310 -8.400850 0.000003 0.000000 0.000001 -1.232768 -5.771959 -0.192341 0.133968 -0.197641 -4.602096 -0.000001 -0.000001 -0.000000 1.884772 4.663338 -4.597388 0.476682 -1.009834 -12.986453 0.000001 0.000000 0.000000 3.024657 7.938918 -14.103471 -0.707998 -0.566243 -18.895739 -0.000001 -0.000001 -0.000000 2.010412 6.305955 -22.386517 -0.815392 -0.210780 -16.746492 -0.000001 -0.000004 0.000006 0.000001 0.000001 -0.000002 0.000001 0.000001 -0.000002 -0.000000 0.000001 -0.000002 0.000000 0.000000 -0.000000 0.000000 -0.000000 -0.000003 0.000000 0.000000 -0.000000 -0.000000 0.000001 -0.000000 -5.074702 24.344495 1.482819 6.642438 -34.734500 57.610474 -21.032034 44.833836 19.961713 -0.087209 35.608498 7.474262 55.149546 18.649581 -29.698305 -0.442534 -14.180583 7.313180 0.000001 -0.000001 0.000001 5.673419 7.585001 36.844130 1.050444 3.824517 68.900278 -0.000002 0.000000 0.000001 -0.125723 1.886097 45.000759 -1.168993 3.204677 68.417663 -0.000001 0.000001 -0.000001 -5.311988 1.216673 58.508814 -0.745215 1.667603 48.011278 -0.000004 0.000001 0.000002 -7.756791 -9.376454 47.263990 -0.526070 1.541604 45.600549 0.000004 -0.000000 -0.000002 -0.000002 -0.000001 -0.000002 -0.000002 -0.000002 0.000001 -0.000002 -0.000001 -0.000002 -0.000000 0.000001 0.000003 -0.000000 0.000001 0.000001 -0.000000 0.000001 0.000003 0.000000 0.000001 0.000001 0.000003 0.000000 0.000000 0.000003 0.000000 0.000000 0.000003 0.000000 0.000000 0.000003 0.000000 0.000000 0.000003 0.000000 0.000000 0.000003 0.000000 0.000000 0.000003 0.000000 0.000000 -0.000000 0.000000 0.000000 -0.000001 0.000004 -0.000000 
-3.542649 78.398842 3.042491 11.431192 -49.390911 11.069435 -0.000000 -0.000000 -0.000000 -68.937359 20.566746 47.869149 51.323411 -22.168793 3.399047 2.953788 1.459800 -15.120514 0.000000 -0.000000 0.000000 0.000001 -0.000002 0.000002 -32.968005 3.824439 -30.941225 58.874024 4.970304 -6.658491 -30.830067 -6.439241 30.134357 -0.000000 -0.000000 -0.000000 0.000000 -0.000001 -0.000002 11.025104 2.742741 -2.035983 6.188155 5.589641 -4.295628 -5.699337 6.352515 -3.051298 0.472158 1.876148 -0.042197 0.472173 1.876142 -0.042190 0.000000 0.000000 -0.000000 0.472309 1.876148 -0.042201 0.472089 1.876130 -0.042192 0.000000 0.000000 -0.000000 0.000000 0.000000 -0.000000 -1.855995 -16.058166 -2.816048 -10.385494 2.369356 -45.670422 -22.894932 -25.988972 -16.012779 2.360401 -2.360396 7.020292 18.457985 -9.513801 13.216614 -1.117663 11.299202 -8.401846 0.000002 0.000002 -0.000004 -1.224574 -5.630569 -0.331825 0.133893 -0.206648 -4.623309 -0.000001 -0.000002 0.000002 1.885333 4.715067 -4.918032 0.476769 -1.004008 -12.983511 -0.000003 -0.000000 0.000001 3.029984 7.944261 -14.551865 -0.700054 -0.576639 -18.955119 -0.000000 0.000001 0.000001 1.990279 6.246911 -22.962891 -0.826323 -0.222442 -16.896148 0.000003 -0.000002 0.000002 0.000003 0.000000 -0.000001 0.000003 0.000000 -0.000001 0.000002 0.000001 -0.000001 0.000001 0.000001 -0.000001 0.000002 -0.000000 -0.000003 0.000001 0.000001 -0.000001 0.000000 0.000001 -0.000001 -5.066371 24.333374 1.455170 6.981894 -34.825878 57.642268 -21.222402 45.311250 20.254393 -0.031911 34.401962 7.289566 55.149543 18.649581 -29.698305 -0.442532 -14.180578 7.313181 0.000002 -0.000001 0.000001 5.673419 7.585004 36.844130 1.050448 3.824520 68.900285 -0.000000 0.000001 0.000000 -0.125721 1.886097 45.000759 -1.168993 3.204672 68.417663 0.000002 0.000000 0.000001 -5.311985 1.216673 58.508814 -0.745213 1.667600 48.011278 -0.000000 0.000001 0.000000 -7.756783 -9.376456 47.263990 -0.526072 1.541601 45.600546 0.000000 -0.000002 0.000001 0.000000 -0.000004 0.000001 0.000003 -0.000003 0.000005 0.000000 -0.000004 0.000001 -0.000000 0.000001 0.000002 0.000001 0.000001 0.000002 -0.000000 0.000001 0.000002 0.000001 0.000001 0.000003 0.000000 0.000001 -0.000001 0.000000 0.000001 -0.000001 0.000000 0.000001 -0.000001 0.000000 0.000001 -0.000001 0.000000 0.000001 -0.000001 0.000000 0.000001 -0.000001 0.000000 0.000001 -0.000001 0.000001 -0.000001 0.000001 -0.000000 -0.000000 -0.000000 
-3.565706 78.439217 3.041418 11.226990 -49.508606 10.901957 -0.000000 0.000003 -0.000000 -68.736667 20.605159 47.967917 51.280381 -22.173670 3.396017 2.915208 1.467523 -15.161418 0.000000 0.000000 -0.000000 -0.000000 0.000000 -0.000000 -32.860911 3.808592 -30.901094 58.836547 5.055718 -6.637184 -30.868268 -6.332349 30.045534 -0.000000 0.000000 0.000000 0.000002 0.000001 0.000001 11.044940 2.752925 -2.052799 6.186601 5.562064 -4.322155 -5.698940 6.329845 -3.081999 0.511933 1.907373 -0.083170 0.511922 1.907370 -0.083169 -0.000001 0.000000 0.000000 0.511924 1.907380 -0.083172 0.511923 1.907381 -0.083172 0.000002 0.000000 -0.000000 -0.000001 0.000000 -0.000001 -1.887820 -15.980242 -2.954251 -9.744628 3.069624 -45.648282 -22.996526 -26.475806 -16.316815 2.300976 -1.963900 7.199116 18.457990 -9.513796 13.216614 -1.084054 11.338918 -8.409953 0.000001 -0.000003 -0.000001 -1.221692 -5.484215 -0.441168 0.133869 -0.207158 -4.636417 0.000002 0.000002 -0.000000 1.887530 4.772116 -5.193960 0.476808 -1.001948 -12.982508 0.000002 0.000001 0.000001 3.035544 7.953656 -14.954979 -0.700749 -0.578569 -19.007124 0.000002 -0.000001 0.000000 1.968750 6.196180 -23.484212 -0.827874 -0.227578 -17.039300 -0.000000 -0.000003 -0.000002 -0.000000 -0.000001 0.000001 -0.000000 -0.000001 0.000001 -0.000001 -0.000001 0.000001 -0.000002 0.000001 -0.000001 -0.000002 -0.000000 -0.000003 -0.000002 0.000001 -0.000001 -0.000003 0.000001 -0.000001 -5.003281 24.240942 1.294550 7.512603 -34.683680 57.858853 -21.429155 45.825737 20.561173 -0.018242 33.143363 7.263354 55.149546 18.649586 -29.698301 -0.442531 -14.180580 7.313183 0.000000 0.000001 -0.000000 5.673420 7.585006 36.844130 1.050443 3.824518 68.900278 -0.000003 0.000001 -0.000002 -0.125718 1.886096 45.000759 -1.168991 3.204672 68.417663 -0.000000 0.000001 -0.000002 -5.311984 1.216674 58.508814 -0.745213 1.667599 48.011278 -0.000002 0.000001 0.000002 -7.756781 -9.376456 47.263997 -0.526072 1.541603 45.600549 0.000000 -0.000000 0.000000 -0.000002 0.000001 -0.000003 -0.000002 -0.000001 0.000002 -0.000002 0.000001 -0.000004 -0.000000 0.000000 -0.000002 0.000001 0.000000 -0.000002 -0.000000 0.000000 -0.000002 0.000001 -0.000000 -0.000001 0.000002 -0.000000 0.000001 0.000002 -0.000000 0.000001 0.000002 -0.000000 0.000001 0.000002 -0.000000 0.000001 0.000002 -0.000000 0.000001 0.000002 -0.000000 0.000001 0.000002 -0.000000 0.000001 0.000002 0.000003 0.000000 -0.000000 0.000003 -0.000000 
-3.596539 78.556564 3.054919 11.157813 -49.723186 10.870629 0.000000 0.000001 -0.000000 -68.396531 20.785019 48.034316 51.008331 -22.114749 3.380091 2.880385 1.521846 -15.264170 -0.000000 -0.000002 -0.000000 -0.000000 -0.000002 -0.000001 -32.677227 3.853868 -30.805253 58.491561 5.006687 -6.658204 -30.661949 -6.312077 30.076103 -0.000000 0.000003 0.000000 0.000001 -0.000003 0.000003 11.006199 2.756673 -2.080989 6.094690 5.552631 -4.374460 -5.789374 6.330518 -3.135534 0.646649 1.951641 -0.134102 0.646644 1.951639 -0.134098 -0.000000 -0.000003 0.000002 0.646582 1.951650 -0.134096 0.646725 1.951620 -0.134101 -0.000002 -0.000001 -0.000000 -0.000000 -0.000003 0.000001 -1.927919 -15.803185 -3.173252 -9.059320 3.692967 -45.606713 -23.033973 -26.651577 -16.503477 2.368047 -1.643990 7.343471 18.457992 -9.513794 13.216615 -1.049321 11.383051 -8.414790 -0.000000 0.000001 -0.000003 -1.214720 -5.335689 -0.612023 0.133772 -0.208354 -4.666216 -0.000001 0.000003 -0.000004 1.890269 4.825091 -5.559856 0.476699 -1.002396 -12.993507 0.000002 0.000001 0.000001 3.042684 7.958764 -15.448940 -0.701625 -0.581031 -19.074321 -0.000001 -0.000002 0.000000 1.947817 6.131953 -24.115911 -0.829642 -0.234530 -17.195800 -0.000002 0.000002 0.000002 -0.000001 0.000003 -0.000004 -0.000001 0.000003 -0.000004 -0.000002 0.000003 -0.000004 -0.000003 -0.000001 0.000002 -0.000002 -0.000001 0.000001 -0.000003 -0.000001 0.000002 -0.000003 -0.000000 0.000001 -4.941390 24.275044 1.119726 8.228508 -34.599939 58.192590 -21.599111 46.229674 20.800347 -0.015890 31.983802 7.323202 55.149543 18.649584 -29.698305 -0.442532 -14.180582 7.313177 0.000001 0.000002 0.000001 5.673416 7.585004 36.844130 1.050443 3.824520 68.900278 0.000000 0.000000 0.000000 -0.125724 1.886100 45.000759 -1.168993 3.204670 68.417657 0.000004 -0.000001 -0.000001 -5.311985 1.216674 58.508807 -0.745211 1.667605 48.011278 -0.000001 0.000002 0.000001 -7.756785 -9.376451 47.263994 -0.526070 1.541599 45.600539 0.000001 0.000003 0.000000 0.000001 0.000001 -0.000002 0.000001 -0.000000 0.000003 0.000001 0.000001 -0.000001 0.000002 -0.000003 -0.000004 0.000002 -0.000003 -0.000004 0.000002 -0.000003 -0.000004 0.000002 -0.000003 -0.000004 -0.000000 0.000001 0.000000 -0.000000 0.000001 0.000000 -0.000000 0.000001 0.000000 -0.000000 0.000001 0.000000 -0.000000 0.000001 0.000000 -0.000000 0.000001 0.000000 -0.000000 0.000001 0.000000 -0.000001 0.000002 -0.000000 0.000000 0.000001 -0.000000 
